<?xml version="1.0" standalone="no"?><!DOCTYPE svg PUBLIC "-//W3C//DTD SVG 1.1//EN" "http://www.w3.org/Graphics/SVG/1.1/DTD/svg11.dtd"><svg t="1754833661614" class="icon" viewBox="0 0 1024 1024" version="1.1" xmlns="http://www.w3.org/2000/svg" p-id="11800" xmlns:xlink="http://www.w3.org/1999/xlink" width="200" height="200"><path d="M512 512m-512 0a512 512 0 1 0 1024 0 512 512 0 1 0-1024 0Z" fill="#88C5CC" p-id="11801"></path><path d="M897.168 849.112L839.816 768l-232.176-56h-192l-231.824 56-57.08 81.016C220.584 956.2 358.336 1024 512 1024c153.616 0 291.336-67.752 385.168-174.888z" fill="#263740" p-id="11802"></path><path d="M511.624 712h-96L352 728.768l119.752 293.512c13.296 1.032 26.688 1.72 40.248 1.72 13.368 0 26.56-0.672 39.68-1.68L672 728.92 607.624 712h-96z" fill="#CCCCCC" p-id="11803"></path><path d="M399.624 724a112 44 0 1 0 224 0 112 44 0 1 0-224 0Z" fill="#F5F5F5" p-id="11804"></path><path d="M610.968 700.504h0.04l-27.384-85.168-72-5.328-72 5.328-27.392 85.168h0.048a10.792 10.792 0 0 0-0.656 3.544c0 17.648 44.776 31.944 100 31.944 55.216 0 100-14.296 100-31.944 0-1.192-0.248-2.376-0.656-3.544z" fill="#E6CBC3" p-id="11805"></path><path d="M610.968 700.504h0.04l-27.384-85.168-72-5.328-14 1.032 58 4.296 27.384 85.168h-0.04c0.408 1.168 0.656 2.36 0.656 3.544 0 16.128-37.424 29.424-86 31.6 4.576 0.192 9.232 0.344 14 0.344 55.216 0 100-14.296 100-31.944 0-1.192-0.248-2.376-0.656-3.544z" fill="#D9BFB8" p-id="11806"></path><path d="M719.624 272V188.776c0-64.904-46.168-116.776-208-116.776s-208 51.872-208 116.776V272s-32 2.36-32 24v88.552c0 21.632 8 39.448 32 39.448 0 108.168 96.184 232 208 232s208-123.832 208-232c24 0 32-17.816 32-39.448V296c0-21.64-32-24-32-24z" fill="#FFE1D9" p-id="11807"></path><path d="M511.624 72c-4.096 0-8.064 0.056-12 0.12 152.096 2.528 196 53.392 196 116.656V424c0 104.28-89.408 223.064-196 231.488 3.984 0.312 7.976 0.512 12 0.512 111.816 0 208-123.832 208-232V188.776c0-64.904-46.152-116.776-208-116.776z" fill="#F2D6CE" p-id="11808"></path><path d="M511.624 72c-161.832 0-208 51.872-208 116.776V360c7.408-37.04 28.56-142.648 76.128-177.12C417.592 193.696 462.904 200 511.624 200c48.712 0 94.032-6.312 131.872-17.12 47.552 34.48 68.72 140.08 76.128 177.12V188.776c0-64.904-46.152-116.776-208-116.776z" fill="#242424" p-id="11809"></path><path d="M511.624 72c-4.08 0-8.04 0.056-11.976 0.12 152.072 2.536 195.976 53.392 195.976 116.656v78.96c12.744 36.224 20.2 73.264 24 92.264V188.776c0-64.904-46.152-116.776-208-116.776z" fill="#1A1A1A" p-id="11810"></path><path d="M536 760h-48l-16 48 16 16-21.2 197.888c14.904 1.312 29.968 2.112 45.2 2.112s30.296-0.8 45.2-2.112L536 824l16-16-16-48z" fill="#CC584C" p-id="11811"></path><path d="M612 704.056L511.624 736l40 88 88-104zM411.248 704.056L511.624 736l-40 88-88-104z" fill="#F5F5F5" p-id="11812"></path><path d="M383.624 720L352 728l-32 112 48 16-16 64 77.888 97.36c16.736 2.696 33.736 4.576 50.968 5.608L383.624 720zM672 728l-31.624-8-97.232 302.968a513.344 513.344 0 0 0 50.968-5.608L672 920l-16-64 48-16-32-112z" fill="#354D59" p-id="11813"></path></svg>